<?xml version="1.0" standalone="no"?>
<!DOCTYPE svg PUBLIC "-//W3C//DTD SVG 20010904//EN"
 "http://www.w3.org/TR/2001/REC-SVG-20010904/DTD/svg10.dtd">
<svg version="1.0" xmlns="http://www.w3.org/2000/svg"
 width="879.000000pt" height="507.000000pt" viewBox="0 0 879.000000 507.000000"
 preserveAspectRatio="xMidYMid meet">
<metadata>
Created by potrace 1.10, written by Peter Selinger 2001-2011
</metadata>
<g transform="translate(0.000000,507.000000) scale(0.100000,-0.100000)"
fill="#333588" stroke="none">
<path d="M4035 4960 c-55 -5 -167 -14 -250 -19 -147 -10 -382 -36 -580 -66
-55 -8 -131 -19 -168 -25 -38 -5 -74 -13 -80 -17 -7 -4 -34 -11 -62 -14 -27
-4 -70 -13 -95 -19 -25 -7 -70 -18 -100 -25 -30 -8 -75 -19 -100 -26 -25 -6
-70 -18 -100 -25 -30 -7 -80 -20 -110 -29 -30 -9 -73 -21 -95 -26 -22 -6 -44
-14 -49 -20 -6 -5 -19 -9 -30 -9 -12 0 -34 -7 -50 -15 -15 -8 -36 -15 -45 -15
-10 0 -26 -7 -37 -15 -10 -8 -27 -15 -36 -15 -10 0 -32 -6 -50 -14 -18 -7 -60
-24 -93 -36 -81 -29 -99 -37 -270 -115 -69 -31 -233 -114 -265 -133 -19 -12
-42 -25 -50 -28 -48 -21 -350 -213 -370 -234 -3 -3 -34 -28 -70 -55 -202 -151
-400 -355 -538 -552 -58 -83 -135 -228 -182 -343 -12 -30 -26 -64 -30 -75 -61
-149 -88 -497 -55 -710 18 -115 33 -179 60 -255 23 -67 133 -287 175 -350 40
-62 82 -122 90 -130 3 -3 31 -37 62 -77 32 -39 95 -108 140 -154 119 -119 429
-369 458 -369 5 0 10 -4 10 -8 0 -5 10 -14 22 -21 27 -14 48 -27 105 -64 24
-15 45 -27 48 -27 2 0 34 -18 69 -39 54 -33 264 -139 371 -186 17 -7 59 -27
95 -44 36 -17 72 -31 81 -31 8 0 19 -4 25 -8 10 -10 142 -58 249 -92 39 -12
84 -28 100 -35 17 -7 41 -16 55 -19 51 -10 116 -29 133 -38 10 -5 37 -13 60
-18 23 -4 96 -22 162 -38 66 -17 147 -36 180 -42 33 -7 87 -18 121 -26 33 -8
71 -14 85 -14 13 0 46 -7 73 -15 27 -8 66 -15 86 -15 20 0 50 -4 66 -10 16 -5
70 -14 119 -19 50 -5 178 -19 285 -31 252 -27 894 -38 1170 -21 288 19 642 56
678 71 13 6 42 10 66 10 23 0 65 7 92 15 27 8 60 15 74 15 14 0 54 6 90 14 36
9 110 25 165 37 103 22 321 78 410 105 28 8 68 19 90 25 21 5 44 14 50 18 5 5
21 11 35 14 43 9 294 98 304 108 6 5 16 9 23 9 7 0 43 14 80 31 38 17 88 40
113 51 87 39 286 139 345 173 33 20 69 40 80 45 11 6 34 19 50 30 17 11 37 23
45 27 17 8 72 45 80 54 3 3 12 8 20 12 40 18 187 131 315 242 132 115 205 192
338 360 39 49 109 154 127 188 11 23 25 49 30 57 16 25 87 184 94 210 4 14 11
34 15 45 71 173 95 519 53 730 -26 127 -40 181 -51 203 -5 9 -19 46 -32 81
-18 52 -66 148 -153 307 -6 12 -18 28 -26 36 -8 9 -22 26 -30 38 -103 153
-320 372 -506 512 -38 28 -71 54 -74 58 -26 30 -354 231 -480 294 -41 21 -82
42 -90 47 -8 4 -46 23 -85 40 -38 18 -97 44 -130 60 -86 39 -156 67 -244 95
-42 14 -88 31 -103 39 -14 8 -34 15 -45 15 -10 0 -27 7 -37 15 -11 8 -30 15
-43 15 -13 0 -31 4 -41 9 -35 19 -284 89 -397 112 -54 11 -121 28 -175 45 -25
8 -60 14 -78 14 -18 0 -42 5 -53 10 -10 6 -47 15 -82 20 -34 5 -109 16 -167
25 -172 26 -417 52 -700 76 -175 14 -707 20 -835 9z m523 -107 c4 -10 7 -49 6
-88 -2 -38 -3 -123 -3 -187 -1 -111 -2 -118 -21 -118 -11 0 -20 5 -20 10 0 15
-28 12 -56 -6 -36 -24 -93 -5 -130 43 -24 32 -29 47 -28 94 1 108 73 165 174
138 12 -3 16 8 18 51 2 30 8 60 14 67 15 18 36 16 46 -4z m473 -133 c-5 -167
-21 -284 -41 -287 -40 -7 -43 9 -31 141 6 70 11 150 11 179 0 58 22 100 48 95
15 -3 17 -18 13 -128z m-1164 40 c7 -36 18 -101 23 -145 6 -44 15 -95 19 -113
7 -24 6 -36 -6 -47 -17 -18 -29 -19 -39 -3 -12 19 -33 131 -34 178 0 25 -4 51
-9 59 -10 15 -15 -1 -45 -132 -16 -70 -41 -127 -54 -127 -17 0 -39 27 -55 68
-35 88 -46 118 -51 145 -4 15 -13 27 -20 27 -12 0 -14 -24 -13 -122 l2 -123
-25 0 -25 0 -8 165 c-4 91 -5 175 -2 187 7 30 42 39 66 17 21 -19 59 -96 79
-159 18 -57 25 -70 42 -73 11 -2 17 10 21 50 7 52 27 123 53 186 12 28 19 33
41 30 25 -3 28 -9 40 -68z m1627 -10 c-1 -19 -7 -66 -12 -105 -6 -38 -16 -108
-22 -155 -12 -84 -21 -102 -50 -97 -12 2 -15 16 -14 62 2 86 35 300 51 328 3
5 15 7 26 5 18 -2 22 -9 21 -38z m-1312 -27 c60 -35 84 -123 52 -186 -55 -107
-155 -117 -236 -22 -12 14 -17 38 -18 82 0 59 2 64 38 103 35 36 44 40 86 40
28 0 61 -7 78 -17z m663 -18 c38 -40 51 -84 35 -115 -11 -20 -18 -21 -93 -19
-93 4 -108 -8 -61 -51 20 -20 36 -25 77 -25 45 0 52 -3 52 -20 0 -32 -80 -44
-131 -19 -102 50 -114 182 -24 258 48 40 103 36 145 -9z m810 5 c0 -31 -34
-39 -59 -14 -22 22 -3 46 33 42 20 -2 26 -9 26 -28z m-2696 -22 c12 -33 3 -48
-30 -48 -25 0 -29 4 -29 28 0 16 3 32 7 35 14 15 44 6 52 -15z m2205 0 c7 -13
16 -45 20 -71 6 -49 21 -87 34 -87 4 0 23 33 42 72 40 82 61 101 86 77 15 -15
14 -20 -12 -60 -16 -24 -45 -75 -64 -113 -20 -38 -46 -76 -58 -84 -20 -13 -23
-11 -41 18 -10 18 -22 53 -26 78 -4 24 -10 52 -15 61 -13 27 -31 112 -25 122
11 17 44 9 59 -13z m-1934 -48 c29 -16 57 -73 65 -135 4 -32 12 -66 17 -75 18
-29 2 -53 -29 -46 -18 4 -42 -1 -67 -13 -33 -17 -43 -18 -69 -8 -42 18 -71 59
-63 90 8 35 63 87 97 94 36 7 45 19 29 38 -14 17 -56 20 -65 5 -9 -15 -65 -12
-65 3 0 15 26 41 50 50 25 9 80 8 100 -3z m-648 -27 c6 -16 14 -44 19 -63 4
-19 22 -84 39 -145 42 -145 42 -150 5 -150 -16 -1 -46 -11 -65 -23 -39 -24
-56 -27 -95 -12 -37 14 -61 39 -79 84 -20 49 -20 86 0 129 21 43 61 67 113 67
40 0 49 7 33 26 -14 15 -34 93 -27 104 13 20 46 10 57 -17z m3054 12 c3 -8 -1
-47 -9 -87 -9 -40 -19 -92 -22 -116 -8 -48 -32 -69 -59 -49 -13 10 -14 18 -7
45 5 18 15 67 21 110 6 42 13 85 16 95 7 21 52 23 60 2z m247 -35 c49 -29 71
-92 51 -144 -8 -21 -90 -21 -132 0 -37 18 -52 12 -52 -20 0 -30 40 -57 93 -62
73 -7 73 -54 1 -54 -90 0 -154 58 -154 140 0 52 20 90 67 129 44 36 78 39 126
11z m-2899 -12 c2 -13 12 -59 21 -103 24 -109 24 -139 2 -143 -24 -5 -47 15
-47 40 0 11 -9 58 -20 105 -12 46 -18 93 -15 104 9 28 53 26 59 -3z m-136 -17
c3 -16 -6 -31 -29 -50 -34 -29 -34 -30 -9 -131 19 -76 18 -95 -7 -98 -29 -4
-37 13 -67 142 -27 120 -26 141 11 131 16 -4 33 1 50 15 31 24 47 22 51 -9z
m3332 -43 c19 -12 46 -23 60 -23 23 0 25 -3 22 -40 -2 -22 -7 -44 -11 -50 -5
-5 -16 -45 -26 -88 -38 -161 -127 -220 -231 -152 -61 40 -38 76 29 46 55 -25
66 -26 95 -5 32 22 28 44 -8 44 -117 0 -168 151 -82 239 55 57 96 64 152 29z
m548 -52 c2 -10 -8 -51 -23 -90 -15 -39 -34 -89 -42 -111 -8 -22 -21 -53 -29
-68 -8 -16 -14 -39 -14 -51 0 -26 -18 -46 -41 -46 -28 0 -32 35 -9 84 11 25
20 48 20 53 0 8 38 114 73 201 17 42 25 52 41 50 12 -2 22 -12 24 -22z m-186
-53 c10 -9 18 -22 18 -30 0 -17 -53 -17 -80 -1 -42 26 -120 -42 -120 -106 0
-23 59 -76 85 -76 34 0 50 -24 30 -44 -20 -19 -13 -19 -66 -1 -85 30 -121 92
-99 170 13 45 60 99 95 108 34 9 119 -3 137 -20z m-4278 -25 c26 -24 96 -175
96 -208 0 -10 -5 -22 -10 -25 -14 -8 -50 4 -50 17 0 5 -6 24 -13 41 -8 18 -20
50 -27 72 -7 22 -17 46 -22 53 -17 20 -57 14 -82 -13 l-24 -25 33 -87 c35 -94
35 -113 1 -113 -27 0 -38 19 -67 120 -11 41 -25 80 -31 87 -5 7 -8 22 -6 35 2
18 8 22 30 20 16 -2 34 4 46 16 38 38 89 42 126 10z m4575 -103 c2 -10 -4 -33
-12 -50 -46 -89 -58 -125 -47 -145 15 -27 55 -36 83 -17 13 8 31 33 40 56 9
23 25 59 34 81 13 32 21 40 37 38 34 -5 30 -40 -13 -130 -22 -45 -41 -94 -43
-108 -4 -30 -38 -39 -58 -15 -7 9 -28 15 -51 15 -34 0 -43 5 -69 42 -34 46
-36 59 -16 96 23 45 46 102 46 114 0 19 33 49 49 46 9 -2 17 -12 20 -23z
m-4867 -38 c15 -17 28 -39 28 -48 0 -8 7 -24 15 -35 8 -10 15 -26 15 -35 0 -9
7 -22 15 -29 25 -21 15 -55 -15 -55 -14 -1 -42 -13 -61 -28 -20 -15 -47 -27
-60 -27 -42 1 -89 52 -89 98 0 23 63 90 97 103 25 9 25 10 8 29 -24 26 -41 25
-81 -5 -42 -32 -54 -32 -54 3 0 28 17 43 75 64 36 13 79 -1 107 -35z m2783 33
c380 -19 665 -54 975 -119 248 -52 294 -63 475 -114 123 -35 373 -120 417
-143 14 -8 32 -14 38 -14 27 0 333 -147 497 -239 123 -69 309 -198 387 -268
38 -35 73 -63 77 -63 14 0 193 -207 238 -276 79 -119 129 -226 152 -320 18
-77 20 -109 16 -234 -3 -80 -12 -167 -20 -195 -18 -63 -72 -181 -102 -220 -12
-17 -32 -48 -43 -69 -71 -131 -387 -424 -587 -542 -27 -16 -59 -34 -70 -41
-11 -7 -29 -17 -40 -23 -11 -6 -33 -19 -50 -30 -57 -37 -350 -176 -455 -214
-41 -16 -90 -34 -108 -42 -18 -8 -37 -14 -42 -14 -5 0 -21 -5 -37 -12 -122
-50 -428 -138 -583 -169 -25 -4 -61 -13 -80 -18 -37 -9 -146 -33 -240 -51 -54
-10 -261 -35 -530 -64 -379 -41 -974 -38 -1390 8 -74 8 -182 20 -240 26 -105
11 -179 24 -360 62 -52 11 -113 24 -135 29 -22 4 -85 20 -140 35 -55 14 -120
30 -145 35 -25 4 -106 28 -181 53 -130 43 -157 53 -226 82 -17 8 -36 14 -43
14 -37 0 -476 206 -567 266 -28 19 -55 34 -58 34 -11 0 -179 115 -265 181
-102 78 -262 237 -338 334 -75 97 -165 275 -193 382 -27 103 -30 291 -5 378
69 245 213 454 460 665 99 85 331 249 391 277 17 7 44 22 60 32 77 46 315 161
383 186 21 7 57 21 82 32 79 35 347 126 485 164 17 4 53 15 80 23 28 8 68 17
90 21 22 4 85 17 140 30 55 13 138 31 185 39 47 9 108 21 135 26 369 72 999
105 1510 80z m2462 -16 c3 -9 1 -24 -5 -33 -7 -9 -16 -26 -21 -38 -6 -11 -15
-24 -20 -28 -24 -14 -11 -35 23 -35 46 0 93 -40 102 -87 9 -48 -9 -101 -51
-148 -34 -38 -40 -40 -92 -40 -50 0 -58 3 -82 33 -19 21 -36 32 -54 32 -28 0
-38 25 -18 45 6 6 34 57 63 115 83 162 107 200 129 200 11 0 22 -7 26 -16z
m-5517 -120 c0 -25 -5 -54 -11 -65 -14 -26 -2 -40 67 -80 47 -27 53 -33 44
-50 -14 -25 -30 -24 -74 6 -21 14 -42 23 -47 20 -5 -4 -9 -23 -9 -44 0 -45
-29 -87 -53 -78 -13 5 -15 15 -10 59 12 97 11 101 -32 125 -22 12 -50 27 -63
33 -26 11 -25 28 1 44 14 9 29 5 66 -16 27 -15 52 -24 55 -21 3 4 6 27 6 53 0
53 4 60 37 60 21 0 23 -4 23 -46z m-274 -146 c36 -29 63 -60 64 -74 0 -6 14
-30 30 -52 34 -48 38 -72 12 -72 -11 0 -35 -16 -55 -35 -46 -45 -96 -48 -132
-9 -41 45 -30 113 26 149 35 24 34 49 -3 53 -20 2 -35 -4 -52 -23 -24 -26 -56
-31 -63 -10 -2 6 11 26 29 44 55 56 98 64 144 29z m-258 -19 c2 -9 -14 -27
-38 -44 -22 -15 -40 -31 -40 -34 0 -6 91 -132 163 -225 27 -36 28 -60 3 -64
-21 -4 -51 24 -89 84 -14 23 -44 62 -66 88 -23 26 -41 51 -41 56 0 4 -8 11
-17 14 -11 4 -28 -4 -49 -25 -20 -20 -39 -29 -48 -26 -26 10 -18 44 17 68 17
12 37 27 42 34 21 25 131 95 145 93 8 -2 16 -10 18 -19z m2165 -3265 c76 -50
77 -156 2 -211 -25 -18 -26 -19 -10 -56 8 -20 16 -72 18 -114 l2 -78 -30 0
-30 0 -5 75 c-7 102 -29 140 -80 140 -24 0 -27 -5 -39 -72 -18 -99 -27 -118
-51 -118 -30 0 -34 23 -21 98 7 37 23 131 35 208 13 78 27 147 31 154 13 21
133 4 178 -26z m2058 -4 c11 -6 19 -21 19 -35 0 -23 -3 -24 -55 -23 -123 3
-140 -99 -22 -138 73 -23 112 -56 133 -109 16 -43 16 -47 -2 -86 -34 -76 -113
-113 -194 -92 -30 8 -35 13 -35 39 l0 29 66 -3 c62 -4 67 -2 88 23 11 15 21
36 21 46 0 33 -46 74 -102 92 -74 23 -100 53 -106 122 -6 68 12 99 71 126 47
21 89 24 118 9z m-1644 -60 c6 -14 19 -65 28 -115 9 -49 23 -126 31 -170 24
-130 27 -162 15 -169 -24 -15 -50 14 -61 71 -7 32 -17 64 -22 71 -6 7 -35 12
-73 12 l-63 0 -22 -59 c-12 -33 -29 -62 -37 -65 -52 -20 -56 13 -14 111 16 38
46 109 66 158 20 50 41 94 46 100 5 5 9 19 9 31 0 54 74 72 97 24z m1120 12
c8 -5 18 -79 29 -202 9 -107 18 -197 21 -200 2 -2 40 -3 83 -1 l80 2 0 -29 0
-29 -107 -7 c-58 -4 -110 -3 -115 2 -9 9 -37 304 -38 399 0 40 4 63 13 66 18
8 21 8 34 -1z m-843 -45 c9 -23 16 -50 16 -59 0 -10 6 -37 14 -60 7 -24 21
-80 31 -125 10 -46 22 -83 26 -83 9 0 19 27 19 54 0 12 16 67 36 122 20 54 41
114 48 133 15 40 36 57 61 47 14 -5 16 -13 11 -39 -5 -27 -48 -145 -77 -212
-5 -11 -20 -53 -34 -94 -30 -90 -49 -121 -74 -121 -28 0 -39 19 -60 101 -11
41 -36 137 -55 214 -20 76 -34 145 -32 152 3 7 16 13 29 13 19 0 28 -9 41 -43z
m631 23 c3 -6 4 -19 0 -30 -5 -16 -17 -20 -83 -22 l-77 -3 0 -65 0 -65 69 0
c53 -1 72 -5 80 -17 18 -30 -9 -47 -82 -50 l-67 -3 -3 -63 c-4 -84 5 -95 74
-86 69 8 104 0 104 -26 0 -11 -9 -24 -19 -30 -28 -14 -183 -13 -204 3 -14 10
-17 39 -18 229 0 119 2 221 6 227 8 14 212 15 220 1z"/>
<path d="M4395 4675 c-20 -19 -25 -34 -25 -74 0 -63 28 -96 75 -86 42 8 48 18
53 83 4 55 2 60 -23 80 -36 28 -50 28 -80 -3z"/>
<path d="M4062 4667 c-34 -36 -31 -108 5 -142 42 -38 80 -29 109 27 45 86 -51
183 -114 115z"/>
<path d="M4727 4672 c-33 -36 -22 -50 38 -50 48 1 55 3 55 21 0 42 -63 62 -93
29z"/>
<path d="M3171 4482 c-30 -25 -32 -31 -22 -50 15 -28 41 -28 69 -2 24 23 28
50 10 68 -17 17 -19 16 -57 -16z"/>
<path d="M2468 4428 c-32 -40 -16 -124 28 -153 30 -19 57 -13 83 21 19 24 18
53 -5 109 -19 47 -77 60 -106 23z"/>
<path d="M5802 4550 c-22 -9 -39 -36 -30 -46 3 -3 31 -7 62 -10 64 -7 72 4 30
42 -28 26 -29 27 -62 14z"/>
<path d="M6104 4479 c-34 -12 -54 -49 -54 -99 0 -54 13 -70 56 -70 40 0 56 15
74 69 12 37 12 46 -2 69 -19 31 -45 42 -74 31z"/>
<path d="M1908 4125 c-33 -31 -35 -46 -8 -70 20 -18 21 -18 46 6 18 17 24 32
22 54 -4 39 -26 42 -60 10z"/>
<path d="M4705 3907 c-4 -10 -5 -21 -1 -24 10 -10 18 4 13 24 -4 17 -4 17 -12
0z"/>
<path d="M4676 3825 c-9 -24 -7 -55 3 -55 13 0 24 51 13 62 -6 6 -12 3 -16 -7z"/>
<path d="M2382 3738 c3 -7 33 -24 69 -37 35 -13 78 -30 96 -37 17 -8 38 -14
46 -14 9 0 28 -6 44 -14 15 -8 48 -22 73 -32 25 -9 59 -22 75 -29 17 -7 66
-26 110 -43 149 -57 320 -124 415 -162 52 -21 140 -55 195 -76 55 -20 114 -43
130 -50 136 -55 186 -74 198 -74 8 0 28 -7 43 -15 16 -8 40 -15 53 -15 20 0
22 3 16 28 -4 15 -7 45 -6 66 2 42 -9 56 -47 56 -12 0 -30 4 -40 9 -9 5 -39
13 -67 19 -27 5 -75 17 -105 27 -30 9 -73 19 -95 22 -22 3 -46 10 -54 16 -7 6
-41 12 -74 13 -34 2 -63 7 -65 13 -2 6 -20 13 -40 17 -40 7 -171 44 -267 76
-33 11 -73 24 -90 28 -16 5 -55 18 -85 30 -67 26 -218 79 -245 87 -11 3 -42
16 -70 28 -76 36 -181 75 -200 75 -9 0 -15 -6 -13 -12z"/>
<path d="M3943 3453 c9 -2 25 -2 35 0 9 3 1 5 -18 5 -19 0 -27 -2 -17 -5z"/>
<path d="M4737 3273 c-17 -28 48 -55 166 -69 65 -8 82 11 20 22 -21 4 -42 10
-48 14 -5 4 -30 12 -55 18 -25 5 -52 13 -61 16 -10 4 -19 3 -22 -1z"/>
<path d="M4550 3251 c5 -11 14 -21 20 -23 17 -5 24 -76 10 -94 -27 -32 -67
-45 -97 -32 -15 7 -32 17 -36 23 -5 6 -7 1 -5 -10 4 -29 73 -61 106 -49 65 23
90 128 42 179 -29 31 -56 34 -40 6z"/>
<path d="M4130 3181 c0 -6 5 -13 10 -16 20 -12 -2 -26 -31 -20 -20 5 -38 1
-54 -9 -26 -17 -34 -46 -14 -46 7 0 30 -9 53 -19 86 -40 115 -51 133 -51 30 0
61 -28 65 -58 3 -24 8 -28 48 -34 25 -3 86 -16 135 -27 114 -26 114 -26 125 4
6 15 17 25 29 25 10 0 21 7 25 15 7 20 -18 19 -49 -1 -46 -30 -173 2 -242 61
-27 23 -48 55 -67 103 -27 65 -31 70 -65 76 -54 9 -101 7 -101 -3z"/>
<path d="M5130 3161 c0 -6 12 -11 28 -11 15 0 37 -7 49 -15 22 -16 45 -3 27
15 -15 14 -104 24 -104 11z"/>
<path d="M4733 3043 c-7 -2 -13 -9 -13 -15 0 -12 41 -6 41 7 1 12 -11 15 -28
8z"/>
<path d="M5070 2960 c0 -12 -12 -32 -26 -45 -42 -39 -21 -51 114 -64 64 -7
142 -16 172 -21 30 -6 89 -12 130 -15 41 -3 100 -10 130 -16 30 -5 96 -14 145
-20 50 -6 140 -16 200 -24 138 -17 263 -31 385 -45 52 -5 145 -17 205 -25 61
-8 119 -15 130 -15 20 1 20 1 1 15 -11 8 -28 12 -38 9 -11 -3 -26 0 -34 6 -8
7 -54 16 -102 20 -48 4 -105 13 -127 19 -22 6 -65 11 -97 11 -31 0 -92 7 -135
15 -43 8 -95 15 -115 15 -36 0 -147 16 -323 45 -49 9 -117 20 -150 25 -118 19
-196 37 -208 49 -6 6 -19 11 -29 11 -9 0 -22 9 -28 20 -7 12 -21 20 -38 20
-15 1 -38 7 -52 15 -14 8 -44 14 -67 15 -37 0 -43 -3 -43 -20z"/>
<path d="M1947 2474 c-10 -11 -9 -274 2 -274 5 0 15 9 22 21 13 19 23 20 206
20 106 0 197 -2 203 -6 6 -4 10 -158 10 -450 l0 -444 -25 -19 c-49 -38 -34
-43 138 -41 89 1 166 4 171 6 4 3 -4 15 -18 27 l-27 21 0 449 c0 247 2 450 4
453 3 2 92 4 198 4 189 0 194 -1 210 -23 10 -12 21 -20 24 -16 11 11 10 271
-1 275 -6 2 -20 -10 -32 -26 l-22 -30 -512 2 c-364 1 -512 5 -515 13 -7 22
-29 45 -36 38z"/>
<path d="M6110 2443 c-53 -5 -174 -34 -184 -44 -6 -5 -19 -9 -29 -9 -11 0 -45
-15 -76 -34 -255 -156 -353 -474 -228 -746 70 -152 207 -270 360 -310 284 -74
514 -38 775 122 24 15 42 18 67 14 28 -6 35 -4 35 9 0 8 -4 15 -9 15 -5 0 -34
42 -65 94 -52 87 -75 113 -90 99 -3 -4 -6 -15 -6 -25 0 -27 -58 -79 -122 -109
-131 -63 -128 -62 -266 -67 -119 -4 -140 -2 -200 18 -124 42 -221 132 -256
236 -44 129 -41 209 12 329 37 86 164 190 252 207 95 19 214 20 297 4 137 -26
283 -110 283 -162 0 -44 34 -28 71 32 18 31 49 76 67 101 18 24 30 48 27 53
-3 4 -22 6 -43 3 -27 -4 -42 -1 -51 11 -7 9 -17 16 -21 16 -5 0 -39 18 -77 40
-150 86 -334 123 -523 103z"/>
<path d="M3550 2412 c0 -7 8 -16 18 -19 9 -4 20 -11 24 -17 4 -6 8 -241 8
-523 l0 -512 -27 -26 c-15 -14 -26 -26 -23 -26 15 -4 306 -5 313 -2 4 3 -3 15
-18 28 l-25 24 -2 331 c-1 181 -2 342 -2 357 -1 33 31 45 40 16 3 -10 17 -40
31 -68 44 -85 129 -247 166 -315 46 -85 146 -276 166 -317 20 -44 47 -43 66 3
8 19 43 83 78 142 35 59 78 136 97 172 18 36 38 72 45 80 13 15 31 48 125 223
29 54 57 96 64 94 8 -3 12 -103 14 -356 l2 -352 -25 -25 c-14 -14 -25 -29 -25
-33 0 -7 323 -9 339 -2 2 0 -11 14 -28 30 l-31 29 0 506 c1 490 1 507 20 526
11 11 25 20 31 20 6 0 9 5 7 11 -5 16 -411 16 -416 0 -2 -6 3 -14 12 -17 35
-14 20 -62 -70 -219 -13 -22 -42 -76 -65 -120 -22 -44 -54 -102 -70 -130 -16
-27 -45 -80 -65 -117 -20 -36 -42 -69 -50 -72 -9 -3 -22 11 -37 42 -13 26 -38
72 -56 102 -17 30 -43 80 -56 110 -14 30 -29 62 -34 70 -6 8 -27 47 -47 85
-20 39 -42 77 -49 85 -16 20 -55 115 -55 135 0 8 7 18 15 21 8 4 15 14 15 23
0 14 -22 16 -210 16 -164 0 -210 -3 -210 -13z"/>
<path d="M7142 4077 c-26 -12 -62 -74 -62 -106 0 -17 52 -71 68 -71 26 0 72
43 81 77 16 56 14 69 -15 92 -30 23 -39 25 -72 8z"/>
<path d="M1392 3863 c-27 -34 -27 -45 -3 -67 36 -33 90 19 71 68 -12 34 -41
33 -68 -1z"/>
<path d="M3200 641 c0 -22 -5 -52 -10 -67 -13 -33 -5 -43 42 -50 27 -5 40 -1
61 17 64 56 32 139 -53 139 -40 0 -40 0 -40 -39z"/>
<path d="M3686 578 c-12 -47 -40 -125 -48 -135 -16 -21 1 -33 46 -33 23 0 45
2 48 5 3 3 -1 22 -8 43 -7 20 -13 56 -14 79 0 40 -16 68 -24 41z"/>
</g>
</svg>
